<svg xmlns="http://www.w3.org/2000/svg" viewBox="0 0 32 32">
  <rect width="32" height="32" rx="7" fill="#f4f1eb"/>
  <g fill="none" stroke="#1a1916" stroke-width="1.15" stroke-linecap="square">
    <line x1="16" y1="10.2" x2="16" y2="21.8"/>
    <path d="M7.2 14.2c2.4 1.1 7.2 1.1 11.2 0 2.1-.4 3.4.6 3.4 2.3s-1.3 2.7-3.4 2.3c-4-.9-8.8-.9-11.2 0-1.9.4-3.2-.6-3.2-2.3s1.3-2.7 3.2-2.3z"/>
  </g>
  <path fill="#b0b15e" d="M8.4 15.4c2.1.8 6.4.8 10 0 .4-.1.7 0 .9.3v1.1c-.3.4-.7.5-1.2.4-3.4-.7-7.4-.7-9.4 0-.4.1-.8 0-1-.3v-1.2c.2-.3.5-.4.7-.3z"/>
  <ellipse cx="16" cy="15.7" rx="2.1" ry="1.05" fill="#f7f4ee" stroke="#1a1916" stroke-width="0.6"/>
  <line x1="13.4" y1="13.6" x2="13.4" y2="18.4" stroke="#1a1916" stroke-width="0.9"/>
  <line x1="18.6" y1="13.6" x2="18.6" y2="18.4" stroke="#1a1916" stroke-width="0.9"/>
</svg>
